<?xml version="1.0" encoding="UTF-8"?>
<svg version="1.1" xmlns="http://www.w3.org/2000/svg" width="32" height="32">
<path d="M0 0 C10.56 0 21.12 0 32 0 C32 10.56 32 21.12 32 32 C21.44 32 10.88 32 0 32 C0 21.44 0 10.88 0 0 Z " fill="#FDFEFE" transform="translate(0,0)"/>
<path d="M0 0 C2.4375 0.1875 2.4375 0.1875 3.4375 1.1875 C3.57865161 3.85808851 3.47997107 6.51182238 3.4375 9.1875 C4.55125 9.14625 5.665 9.105 6.8125 9.0625 C10.4375 9.1875 10.4375 9.1875 12.4375 11.1875 C12.625 13.75 12.625 13.75 12.4375 16.1875 C11.4375 17.1875 11.4375 17.1875 9.58984375 17.28515625 C7.5390625 17.25260417 5.48828125 17.22005208 3.4375 17.1875 C3.47875 18.46625 3.52 19.745 3.5625 21.0625 C3.6328125 23.2421875 3.6328125 23.2421875 3.4375 25.1875 C2.7775 25.8475 2.1175 26.5075 1.4375 27.1875 C-3.11805556 26.63194444 -3.11805556 26.63194444 -4.5625 25.1875 C-4.70365161 22.51691149 -4.60497107 19.86317762 -4.5625 17.1875 C-5.861875 17.208125 -7.16125 17.22875 -8.5 17.25 C-9.85415633 17.27149454 -11.21006083 17.25898199 -12.5625 17.1875 C-13.5625 16.1875 -13.5625 16.1875 -13.75 13.75 C-13.5625 11.1875 -13.5625 11.1875 -11.5625 9.1875 C-7.9375 9.0625 -7.9375 9.0625 -4.5625 9.1875 C-4.60375 8.07375 -4.645 6.96 -4.6875 5.8125 C-4.54401352 1.6513922 -4.29839149 0.31451645 0 0 Z " fill="#96D2D2" transform="translate(16.5625,2.8125)"/>
</svg>
